# xmcd
#
# Track frame offsets:
#	150
#	13726
#	26677
#	50380
#	65612
#	83492
#	96457
#	127289
#	158018
#	173780
#	220252
#	256032
#	272440
#	306689
#
# Disc length: 4340 seconds
#
# Revision: 0
# Processed by: cddbd v1.5.1PL2 Copyright (c) Steve Scherf et al.
# Submitted via: dBpowerAMP V4.0
#
DISCID=c210f20e
DTITLE=edu manazas and whisky tren - 424
DYEAR=1900
DGENRE=Blues
TTITLE0=just a little bit
TTITLE1=the things i used to do
TTITLE2=i`ve got my mojo working
TTITLE3=shake your money maker
TTITLE4=boogie woogie rambler
TTITLE5=let me love you baby
TTITLE6=chachacha in blue
TTITLE7=just tell me baby
TTITLE8=you don`t have to go
TTITLE9=i just want to make love to you
TTITLE10=cat fish blues
TTITLE11=if you love me like you say
TTITLE12=kansas city
TTITLE13=hideaway
EXTD=
EXTT0=
EXTT1=
EXTT2=
EXTT3=
EXTT4=
EXTT5=
EXTT6=
EXTT7=
EXTT8=
EXTT9=
EXTT10=
EXTT11=
EXTT12=
EXTT13=
PLAYORDER=
